<?xml version="1.0" encoding="UTF-8" standalone="no"?>
<!-- Created with Inkscape (http://www.inkscape.org/) -->
<svg
   xmlns:dc="http://purl.org/dc/elements/1.1/"
   xmlns:cc="http://web.resource.org/cc/"
   xmlns:rdf="http://www.w3.org/1999/02/22-rdf-syntax-ns#"
   xmlns:svg="http://www.w3.org/2000/svg"
   xmlns="http://www.w3.org/2000/svg"
   xmlns:xlink="http://www.w3.org/1999/xlink"
   xmlns:sodipodi="http://sodipodi.sourceforge.net/DTD/sodipodi-0.dtd"
   xmlns:inkscape="http://www.inkscape.org/namespaces/inkscape"
   width="1052.3622"
   height="744.09448"
   id="svg2"
   sodipodi:version="0.32"
   inkscape:version="0.44.1"
   sodipodi:docbase="/home/osklyar/svn/bioc/EBImage"
   sodipodi:docname="R-EBImage.svg"
   version="1.0">
  <defs
     id="defs4">
    <linearGradient
       id="linearGradient8865">
      <stop
         style="stop-color:#265d77;stop-opacity:0;"
         offset="0"
         id="stop8867" />
      <stop
         id="stop8873"
         offset="0.5"
         style="stop-color:#598396;stop-opacity:1;" />
      <stop
         style="stop-color:#527789;stop-opacity:1;"
         offset="1"
         id="stop8869" />
    </linearGradient>
    <linearGradient
       id="linearGradient8529">
      <stop
         style="stop-color:#ffffff;stop-opacity:1;"
         offset="0"
         id="stop8531" />
      <stop
         id="stop8537"
         offset="0.33333334"
         style="stop-color:#97a3ce;stop-opacity:1;" />
      <stop
         style="stop-color:#97a3ce;stop-opacity:1;"
         offset="1"
         id="stop8533" />
    </linearGradient>
    <linearGradient
       inkscape:collect="always"
       xlink:href="#linearGradient8529"
       id="linearGradient8549"
       gradientUnits="userSpaceOnUse"
       gradientTransform="matrix(2.324491,0,0,2.324491,-857.0895,-219.7247)"
       x1="436.33884"
       y1="171.50189"
       x2="486.6174"
       y2="171.50189" />
    <linearGradient
       id="linearGradient2035">
      <stop
         id="stop2037"
         offset="0.0000000"
         style="stop-color:#e6e6e6;stop-opacity:1.0000000;" />
      <stop
         style="stop-color:#f5f5f5;stop-opacity:1.0000000;"
         offset="0.50000000"
         id="stop2043" />
      <stop
         id="stop2039"
         offset="1.0000000"
         style="stop-color:#dbdbdb;stop-opacity:1.0000000;" />
    </linearGradient>
    <linearGradient
       id="linearGradient4227"
       inkscape:collect="always">
      <stop
         id="stop4229"
         offset="0"
         style="stop-color:#679737;stop-opacity:1;" />
      <stop
         id="stop4231"
         offset="1"
         style="stop-color:#679737;stop-opacity:0;" />
    </linearGradient>
    <linearGradient
       id="linearGradient4235">
      <stop
         id="stop4237"
         offset="0"
         style="stop-color:#63685e;stop-opacity:1;" />
      <stop
         id="stop4239"
         offset="1.0000000"
         style="stop-color:#73a93d;stop-opacity:1.0000000;" />
    </linearGradient>
    <linearGradient
       id="linearGradient4249">
      <stop
         id="stop4251"
         offset="0"
         style="stop-color:#afafaf;stop-opacity:1;" />
      <stop
         id="stop4253"
         offset="1"
         style="stop-color:#929292;stop-opacity:1;" />
    </linearGradient>
    <linearGradient
       y2="85.774864"
       x2="59.516056"
       y1="83.344872"
       x1="59.516056"
       gradientTransform="translate(-1.59099,2.12132)"
       gradientUnits="userSpaceOnUse"
       id="linearGradient8675"
       xlink:href="#linearGradient4227"
       inkscape:collect="always" />
    <linearGradient
       y2="80.392929"
       x2="66.602226"
       y1="59.533283"
       x1="56.318977"
       gradientUnits="userSpaceOnUse"
       id="linearGradient8673"
       xlink:href="#linearGradient2066"
       inkscape:collect="always" />
    <linearGradient
       y2="85.774864"
       x2="59.516056"
       y1="83.344872"
       x1="59.516056"
       gradientTransform="matrix(0.503371,0,0,0.61593,68.53399,35.1462)"
       gradientUnits="userSpaceOnUse"
       id="linearGradient8671"
       xlink:href="#linearGradient4227"
       inkscape:collect="always" />
    <linearGradient
       y2="80.392929"
       x2="66.602226"
       y1="59.533283"
       x1="56.318977"
       gradientTransform="matrix(0.503371,0,0,0.61593,69.33482,33.83962)"
       gradientUnits="userSpaceOnUse"
       id="linearGradient8669"
       xlink:href="#linearGradient2072"
       inkscape:collect="always" />
    <linearGradient
       y2="37.41169"
       x2="63.319275"
       y1="60.568775"
       x1="63.319275"
       gradientUnits="userSpaceOnUse"
       id="linearGradient8667"
       xlink:href="#linearGradient2060"
       inkscape:collect="always" />
    <linearGradient
       y2="125.56181"
       x2="110.62302"
       y1="47.453636"
       x1="-8.767128"
       gradientTransform="translate(14.0583,-12.8816)"
       gradientUnits="userSpaceOnUse"
       id="linearGradient8665"
       xlink:href="#linearGradient2035"
       inkscape:collect="always" />
    <linearGradient
       id="linearGradient8657">
      <stop
         id="stop8659"
         offset="0.0000000"
         style="stop-color:#e6e6e6;stop-opacity:1.0000000;" />
      <stop
         style="stop-color:#f5f5f5;stop-opacity:1.0000000;"
         offset="0.50000000"
         id="stop8661" />
      <stop
         id="stop8663"
         offset="1.0000000"
         style="stop-color:#dbdbdb;stop-opacity:1.0000000;" />
    </linearGradient>
    <linearGradient
       id="linearGradient8651">
      <stop
         id="stop8653"
         offset="0.0000000"
         style="stop-color:#377197;stop-opacity:1.0000000;" />
      <stop
         id="stop8655"
         offset="1.0000000"
         style="stop-color:#376097;stop-opacity:0.0000000;" />
    </linearGradient>
    <linearGradient
       inkscape:collect="always"
       id="linearGradient2060">
      <stop
         style="stop-color:#cd8989;stop-opacity:1.0000000"
         offset="0"
         id="stop2062" />
      <stop
         style="stop-color:#c55757;stop-opacity:1.0000000"
         offset="1"
         id="stop2064" />
    </linearGradient>
    <linearGradient
       id="linearGradient2066">
      <stop
         style="stop-color:#5387c1;stop-opacity:1.0000000"
         offset="0"
         id="stop2068" />
      <stop
         style="stop-color:#3d7da9;stop-opacity:1.0000000"
         offset="1.0000000"
         id="stop2070" />
    </linearGradient>
    <linearGradient
       id="linearGradient2072">
      <stop
         style="stop-color:#539bc1;stop-opacity:1.0000000"
         offset="0"
         id="stop2074" />
      <stop
         style="stop-color:#3d84a9;stop-opacity:1.0000000"
         offset="1.0000000"
         id="stop2076" />
    </linearGradient>
    <linearGradient
       inkscape:collect="always"
       xlink:href="#linearGradient8529"
       id="linearGradient8785"
       gradientUnits="userSpaceOnUse"
       gradientTransform="matrix(2.324491,0,0,2.324491,-857.0895,-219.7247)"
       x1="436.33884"
       y1="171.50189"
       x2="486.6174"
       y2="171.50189" />
    <linearGradient
       inkscape:collect="always"
       xlink:href="#linearGradient8529"
       id="linearGradient8790"
       gradientUnits="userSpaceOnUse"
       gradientTransform="matrix(1.678308,0,0,1.678308,-668.616,-107.9602)"
       x1="436.33884"
       y1="171.50189"
       x2="486.6174"
       y2="171.50189" />
    <linearGradient
       inkscape:collect="always"
       xlink:href="#linearGradient8529"
       id="linearGradient8859"
       gradientUnits="userSpaceOnUse"
       gradientTransform="matrix(1.678308,0,0,1.678308,-668.616,-107.9602)"
       x1="436.33884"
       y1="171.50189"
       x2="486.6174"
       y2="171.50189" />
    <linearGradient
       inkscape:collect="always"
       xlink:href="#linearGradient8865"
       id="linearGradient8871"
       x1="206.2755"
       y1="34.647167"
       x2="244.90109"
       y2="34.647167"
       gradientUnits="userSpaceOnUse" />
    <linearGradient
       inkscape:collect="always"
       xlink:href="#linearGradient8865"
       id="linearGradient8880"
       gradientUnits="userSpaceOnUse"
       x1="206.2755"
       y1="34.647167"
       x2="244.90109"
       y2="34.647167" />
    <linearGradient
       inkscape:collect="always"
       xlink:href="#linearGradient8529"
       id="linearGradient2864"
       gradientUnits="userSpaceOnUse"
       gradientTransform="matrix(1.678308,0,0,1.678308,-668.616,-107.9602)"
       x1="436.33884"
       y1="171.50189"
       x2="486.6174"
       y2="171.50189" />
  </defs>
  <sodipodi:namedview
     id="base"
     pagecolor="#ffffff"
     bordercolor="#666666"
     borderopacity="1.0"
     inkscape:pageopacity="0.0"
     inkscape:pageshadow="2"
     inkscape:zoom="0.22489307"
     inkscape:cx="-98.029721"
     inkscape:cy="-218.43703"
     inkscape:document-units="px"
     inkscape:current-layer="layer1"
     showguides="true"
     inkscape:guide-bbox="true"
     inkscape:window-width="1060"
     inkscape:window-height="874"
     inkscape:window-x="405"
     inkscape:window-y="251"
     width="1052.3622px"
     height="744.09448px" />
  <metadata
     id="metadata7">
    <rdf:RDF>
      <cc:Work
         rdf:about="">
        <dc:format>image/svg+xml</dc:format>
        <dc:type
           rdf:resource="http://purl.org/dc/dcmitype/StillImage" />
      </cc:Work>
    </rdf:RDF>
  </metadata>
  <g
     inkscape:label="Layer 1"
     inkscape:groupmode="layer"
     id="layer1">
    <rect
       style="fill:black;fill-opacity:1;stroke:none;stroke-opacity:1"
       id="rect2936"
       width="633.13239"
       height="633.13239"
       x="195.59569"
       y="46.16782"
       rx="72.21743"
       ry="70.885612" />
    <path
       style="fill:#ff4500;fill-opacity:1;stroke:none"
       d="M 533.55416,87.198264 C 570.07401,100.9311 586.63849,110.51393 600.46804,132.09497 C 550.78284,102.50071 513.33817,91.030488 452.50293,94.232376 C 414.57256,96.228713 372.54977,103.48948 346.33688,133.31075 C 321.71006,161.32777 295.47289,210.51963 342.12185,285.54273 C 321.70218,207.5466 335.26472,178.14319 374.70052,142.86323 C 410.42397,110.90449 532.50855,113.75876 608.45882,167.26554 C 631.13036,184.4216 653.20592,211.38548 652.27742,247.07224 C 651.11643,291.71842 631.48391,319.65562 581.85157,344.07345 C 525.5122,364.62934 466.044,352.59115 426.51013,335.12885 C 443.04251,353.18706 474.51881,363.02357 505.80525,367.781 C 546.25,373.93112 573.9665,367.75401 598.88699,357.88115 C 641.53407,340.98576 679.52923,308.92895 686.61255,255.66949 C 698.88493,163.39593 646.77942,97.64469 533.55416,87.198264 z M 451.97601,149.63682 C 420.61965,149.4163 372.34968,156.4067 368.64144,202.00187 C 357.72583,269.10427 422.50281,313.39026 453.90777,323.23166 C 534.08136,348.35566 574.20269,319.77258 593.26706,283.28487 C 605.88617,249.67903 611.2432,214.81358 560.24922,171.26019 C 582.21166,214.23548 585.43374,249.42753 562.26909,277.03233 C 520.60139,326.79632 437.49449,305.42792 398.40995,261.66152 C 432.1295,280.09759 453.62696,292.01189 514.41134,289.36373 C 468.04682,282.61292 445.12632,267.9993 426.24697,238.90921 C 405.63735,207.1538 411.60657,182.70658 448.1122,182.54953 C 506.15283,185.86208 540.78355,194.42564 554.98058,252.80375 C 556.39593,188.5317 543.5199,159.87648 470.2412,150.59207 C 465.5691,150.16018 459.21193,149.68772 451.97601,149.63682 z "
       id="path2911" />
    <path
       style="fill:#32cd32;fill-opacity:1;stroke:none;stroke-opacity:1"
       d="M 762.70809,600.84489 C 772.9639,580.78214 766.56156,555.77502 747.2336,543.28077 C 726.61718,529.95365 699.04642,535.86729 685.71918,556.48363 C 672.39211,577.09999 678.30576,604.67079 698.92189,617.99811 C 719.53855,631.32526 747.10934,625.41162 760.43656,604.79529 C 761.26929,603.50669 762.02436,602.18244 762.70809,600.84489 z M 703.82147,500.10193 C 714.07755,480.03896 707.67513,455.03183 688.34723,442.53758 C 667.73076,429.21044 640.16008,435.12387 626.833,455.74043 C 613.50575,476.35677 619.41939,503.92755 640.0358,517.25472 C 660.65219,530.58205 688.22296,524.66841 701.55022,504.05183 C 702.3832,502.76348 703.13791,501.43923 703.82147,500.10193 z M 644.38757,601.41109 C 654.6434,581.34837 648.24124,556.34121 628.9136,543.84678 C 608.29685,530.51963 580.72617,536.43323 567.39884,557.04961 C 554.07159,577.66617 560.02441,605.16873 580.64115,618.49609 C 601.25728,631.82322 628.82805,625.90936 642.15529,605.29325 C 642.98827,604.00467 643.70403,602.74865 644.38757,601.41109 z "
       id="path2924" />
    <path
       style="fill:#44555d;fill-opacity:1;stroke:none"
       d="M 611.16439,481.91468 C 608.36695,467.17684 611.28876,457.19227 619.5205,445.60755 C 626.43511,435.87643 635.23171,430.38943 649.2818,427.6384 C 632.6086,418.78217 599.64044,400.72962 525.75437,398.24527 C 559.23194,420.12277 590.12283,447.55819 611.16439,481.91468 z M 551.19284,567.74316 C 552.78349,558.0529 557.14125,548.34172 566.99458,537.27434 C 543.65049,491.63012 522.31599,450.61875 489.66338,410.57667 C 457.9745,383.02441 418.46479,387.86927 405.01152,406.14778 C 398.51283,414.97624 394.19088,454.28948 393.50794,510.35677 L 392.36655,600.41072 L 358.73389,600.41072 L 334.23402,600.49756 L 335.90245,451.30501 C 326.70402,433.70513 319.04151,406.77011 312.54419,373.06141 C 294.2625,464.44337 328.17749,554.91245 299.19659,633.75761 L 421.78376,633.67074 L 421.78376,594.33187 L 421.78376,554.99297 L 422.31069,470.41 C 422.46785,447.06548 429.13735,425.38461 454.97695,426.81591 C 481.32701,428.27552 495.07543,448.98318 507.7799,471.46578 C 526.36834,504.36098 537.98508,535.44352 551.19284,567.74316 z M 287.95652,204.41653 C 281.29647,203.25548 267.84737,244.98307 267.8473,299.94144 C 267.8473,370.28812 275.55374,477.63698 298.14283,540.14319 C 288.84017,494.32296 288.3051,423.92009 288.65902,355.86694 C 288.98211,293.75708 292.32834,232.92373 291.55686,216.14004 C 291.20322,208.44585 289.82132,204.74163 287.95652,204.41653 z M 579.34193,530.48245 C 587.41525,525.99448 596.665,522.05154 609.11161,525.44743 C 578.85053,480.65424 547.65147,442.43845 508.10838,405.36621 C 535.78681,448.95248 562.81553,491.64842 579.34193,530.48245 z "
       id="path2909"
       sodipodi:nodetypes="csccccccscccccccccccssccscssccccc" />
  </g>
</svg>
