<?xml version="1.0" encoding="UTF-8" standalone="no"?>
<!-- Created with Inkscape (http://www.inkscape.org/) -->
<svg
   xmlns:dc="http://purl.org/dc/elements/1.1/"
   xmlns:cc="http://web.resource.org/cc/"
   xmlns:rdf="http://www.w3.org/1999/02/22-rdf-syntax-ns#"
   xmlns:svg="http://www.w3.org/2000/svg"
   xmlns="http://www.w3.org/2000/svg"
   xmlns:xlink="http://www.w3.org/1999/xlink"
   xmlns:sodipodi="http://inkscape.sourceforge.net/DTD/sodipodi-0.dtd"
   xmlns:inkscape="http://www.inkscape.org/namespaces/inkscape"
   width="744.09448819"
   height="1052.3622047"
   id="svg2"
   sodipodi:version="0.32"
   inkscape:version="0.43"
   sodipodi:docbase="/home/osklyar/svn/group/projects/Rpacks/EBImage"
   sodipodi:docname="R-EBImage.svg">
  <defs
     id="defs4">
    <linearGradient
       id="linearGradient8865">
      <stop
         style="stop-color:#265d77;stop-opacity:0;"
         offset="0"
         id="stop8867" />
      <stop
         id="stop8873"
         offset="0.5"
         style="stop-color:#598396;stop-opacity:1;" />
      <stop
         style="stop-color:#527789;stop-opacity:1;"
         offset="1"
         id="stop8869" />
    </linearGradient>
    <linearGradient
       id="linearGradient8529">
      <stop
         style="stop-color:#ffffff;stop-opacity:1;"
         offset="0"
         id="stop8531" />
      <stop
         id="stop8537"
         offset="0.33333334"
         style="stop-color:#97a3ce;stop-opacity:1;" />
      <stop
         style="stop-color:#97a3ce;stop-opacity:1;"
         offset="1"
         id="stop8533" />
    </linearGradient>
    <linearGradient
       inkscape:collect="always"
       xlink:href="#linearGradient8529"
       id="linearGradient8549"
       gradientUnits="userSpaceOnUse"
       gradientTransform="matrix(2.324491,0,0,2.324491,-857.0895,-219.7247)"
       x1="436.33885"
       y1="171.50189"
       x2="486.61739"
       y2="171.50189" />
    <linearGradient
       id="linearGradient2035">
      <stop
         id="stop2037"
         offset="0.0000000"
         style="stop-color:#e6e6e6;stop-opacity:1.0000000;" />
      <stop
         style="stop-color:#f5f5f5;stop-opacity:1.0000000;"
         offset="0.50000000"
         id="stop2043" />
      <stop
         id="stop2039"
         offset="1.0000000"
         style="stop-color:#dbdbdb;stop-opacity:1.0000000;" />
    </linearGradient>
    <linearGradient
       id="linearGradient4227"
       inkscape:collect="always">
      <stop
         id="stop4229"
         offset="0"
         style="stop-color:#679737;stop-opacity:1;" />
      <stop
         id="stop4231"
         offset="1"
         style="stop-color:#679737;stop-opacity:0;" />
    </linearGradient>
    <linearGradient
       id="linearGradient4235">
      <stop
         id="stop4237"
         offset="0"
         style="stop-color:#63685e;stop-opacity:1;" />
      <stop
         id="stop4239"
         offset="1.0000000"
         style="stop-color:#73a93d;stop-opacity:1.0000000;" />
    </linearGradient>
    <linearGradient
       id="linearGradient4249">
      <stop
         id="stop4251"
         offset="0"
         style="stop-color:#afafaf;stop-opacity:1;" />
      <stop
         id="stop4253"
         offset="1"
         style="stop-color:#929292;stop-opacity:1;" />
    </linearGradient>
    <linearGradient
       y2="85.774864"
       x2="59.516056"
       y1="83.344872"
       x1="59.516056"
       gradientTransform="translate(-1.590990,2.121320)"
       gradientUnits="userSpaceOnUse"
       id="linearGradient8675"
       xlink:href="#linearGradient4227"
       inkscape:collect="always" />
    <linearGradient
       y2="80.392929"
       x2="66.602226"
       y1="59.533283"
       x1="56.318977"
       gradientUnits="userSpaceOnUse"
       id="linearGradient8673"
       xlink:href="#linearGradient2066"
       inkscape:collect="always" />
    <linearGradient
       y2="85.774864"
       x2="59.516056"
       y1="83.344872"
       x1="59.516056"
       gradientTransform="matrix(0.503371,3.390509e-18,-3.338963e-19,0.615930,68.53399,35.14620)"
       gradientUnits="userSpaceOnUse"
       id="linearGradient8671"
       xlink:href="#linearGradient4227"
       inkscape:collect="always" />
    <linearGradient
       y2="80.392929"
       x2="66.602226"
       y1="59.533283"
       x1="56.318977"
       gradientTransform="matrix(0.503371,3.390509e-18,-3.338963e-19,0.615930,69.33482,33.83962)"
       gradientUnits="userSpaceOnUse"
       id="linearGradient8669"
       xlink:href="#linearGradient2072"
       inkscape:collect="always" />
    <linearGradient
       y2="37.411690"
       x2="63.319275"
       y1="60.568775"
       x1="63.319275"
       gradientUnits="userSpaceOnUse"
       id="linearGradient8667"
       xlink:href="#linearGradient2060"
       inkscape:collect="always" />
    <linearGradient
       y2="125.56181"
       x2="110.62302"
       y1="47.453636"
       x1="-8.7671280"
       gradientTransform="translate(14.05830,-12.88160)"
       gradientUnits="userSpaceOnUse"
       id="linearGradient8665"
       xlink:href="#linearGradient2035"
       inkscape:collect="always" />
    <linearGradient
       id="linearGradient8657">
      <stop
         id="stop8659"
         offset="0.0000000"
         style="stop-color:#e6e6e6;stop-opacity:1.0000000;" />
      <stop
         style="stop-color:#f5f5f5;stop-opacity:1.0000000;"
         offset="0.50000000"
         id="stop8661" />
      <stop
         id="stop8663"
         offset="1.0000000"
         style="stop-color:#dbdbdb;stop-opacity:1.0000000;" />
    </linearGradient>
    <linearGradient
       id="linearGradient8651">
      <stop
         id="stop8653"
         offset="0.0000000"
         style="stop-color:#377197;stop-opacity:1.0000000;" />
      <stop
         id="stop8655"
         offset="1.0000000"
         style="stop-color:#376097;stop-opacity:0.0000000;" />
    </linearGradient>
    <linearGradient
       inkscape:collect="always"
       id="linearGradient2060">
      <stop
         style="stop-color:#cd8989;stop-opacity:1.0000000"
         offset="0"
         id="stop2062" />
      <stop
         style="stop-color:#c55757;stop-opacity:1.0000000"
         offset="1"
         id="stop2064" />
    </linearGradient>
    <linearGradient
       id="linearGradient2066">
      <stop
         style="stop-color:#5387c1;stop-opacity:1.0000000"
         offset="0"
         id="stop2068" />
      <stop
         style="stop-color:#3d7da9;stop-opacity:1.0000000"
         offset="1.0000000"
         id="stop2070" />
    </linearGradient>
    <linearGradient
       id="linearGradient2072">
      <stop
         style="stop-color:#539bc1;stop-opacity:1.0000000"
         offset="0"
         id="stop2074" />
      <stop
         style="stop-color:#3d84a9;stop-opacity:1.0000000"
         offset="1.0000000"
         id="stop2076" />
    </linearGradient>
    <linearGradient
       inkscape:collect="always"
       xlink:href="#linearGradient8529"
       id="linearGradient8785"
       gradientUnits="userSpaceOnUse"
       gradientTransform="matrix(2.324491,0,0,2.324491,-857.0895,-219.7247)"
       x1="436.33885"
       y1="171.50189"
       x2="486.61739"
       y2="171.50189" />
    <linearGradient
       inkscape:collect="always"
       xlink:href="#linearGradient8529"
       id="linearGradient8790"
       gradientUnits="userSpaceOnUse"
       gradientTransform="matrix(1.678308,0,0,1.678308,-668.616,-107.9602)"
       x1="436.33885"
       y1="171.50189"
       x2="486.61739"
       y2="171.50189" />
    <linearGradient
       inkscape:collect="always"
       xlink:href="#linearGradient8529"
       id="linearGradient8859"
       gradientUnits="userSpaceOnUse"
       gradientTransform="matrix(1.678308,0,0,1.678308,-668.616,-107.9602)"
       x1="436.33885"
       y1="171.50189"
       x2="486.61739"
       y2="171.50189" />
    <linearGradient
       inkscape:collect="always"
       xlink:href="#linearGradient8865"
       id="linearGradient8871"
       x1="206.27549"
       y1="34.647166"
       x2="244.90109"
       y2="34.647166"
       gradientUnits="userSpaceOnUse" />
    <linearGradient
       inkscape:collect="always"
       xlink:href="#linearGradient8865"
       id="linearGradient8880"
       gradientUnits="userSpaceOnUse"
       x1="206.27549"
       y1="34.647166"
       x2="244.90109"
       y2="34.647166" />
  </defs>
  <sodipodi:namedview
     id="base"
     pagecolor="#ffffff"
     bordercolor="#666666"
     borderopacity="1.0"
     inkscape:pageopacity="0.0"
     inkscape:pageshadow="2"
     inkscape:zoom="1.5473421"
     inkscape:cx="516.95421"
     inkscape:cy="776.33992"
     inkscape:document-units="px"
     inkscape:current-layer="layer1"
     showguides="true"
     inkscape:guide-bbox="true"
     inkscape:window-width="1061"
     inkscape:window-height="735"
     inkscape:window-x="404"
     inkscape:window-y="251" />
  <metadata
     id="metadata7">
    <rdf:RDF>
      <cc:Work
         rdf:about="">
        <dc:format>image/svg+xml</dc:format>
        <dc:type
           rdf:resource="http://purl.org/dc/dcmitype/StillImage" />
      </cc:Work>
    </rdf:RDF>
  </metadata>
  <g
     inkscape:label="Layer 1"
     inkscape:groupmode="layer"
     id="layer1">
    <g
       id="g8773"
       transform="matrix(0.954995,0.296619,-0.296619,0.954995,300.1438,312.3537)">
      <rect
         transform="matrix(0.896759,-0.442519,0.442519,0.896759,0,0)"
         ry="1.9999998"
         rx="1.9999998"
         y="121.27916"
         x="22.706024"
         height="101.45129"
         width="145.86545"
         id="rect1306"
         style="color:#000000;fill:#d6d6d6;fill-opacity:1;fill-rule:nonzero;stroke:#919191;stroke-width:3.92714429;stroke-linecap:round;stroke-linejoin:round;marker:none;marker-start:none;marker-mid:none;marker-end:none;stroke-miterlimit:4;stroke-dasharray:none;stroke-dashoffset:0;stroke-opacity:1;visibility:visible;display:inline;overflow:visible" />
      <rect
         transform="matrix(0.896569,-0.442903,0.442903,0.896569,0,0)"
         ry="0.99999899"
         rx="0.99999899"
         y="133.54749"
         x="30.046961"
         height="70.82415"
         width="130.58202"
         id="rect2045"
         style="color:#000000;fill:#3c3c3c;fill-opacity:1;fill-rule:nonzero;stroke:#919191;stroke-width:3.54330707;stroke-linecap:round;stroke-linejoin:round;marker:none;marker-start:none;marker-mid:none;marker-end:none;stroke-miterlimit:4;stroke-dasharray:none;stroke-dashoffset:0;stroke-opacity:1;visibility:visible;display:inline;overflow:visible" />
      <path
         id="rect8747"
         d="M 151.58134,75.473048 L 126.98759,87.598048 C 124.76214,95.825948 127.92188,103.83911 136.1658,108.3185 C 145.7153,113.5073 156.36947,109.70669 162.3533,101.381 C 165.50321,96.998318 166.40173,90.251928 164.00123,84.870428 C 161.08801,78.339488 154.91635,74.755398 151.58134,75.473048 z "
         style="color:#000000;fill:#a4d386;fill-opacity:1;fill-rule:nonzero;stroke:none;stroke-width:2.47884512;stroke-linecap:round;stroke-linejoin:round;marker:none;marker-start:none;marker-mid:none;marker-end:none;stroke-miterlimit:4;stroke-dasharray:none;stroke-dashoffset:0;stroke-opacity:1;visibility:visible;display:inline;overflow:visible" />
      <path
         id="path8769"
         d="M 190.50955,80.943498 C 184.42267,81.233658 179.12796,83.973298 176.4783,88.849748 C 171.92586,97.228078 176.91389,108.7746 187.63455,114.59975 C 198.35522,120.42491 210.76961,118.35309 215.32205,109.97475 C 219.87449,101.59642 214.85521,90.049898 204.13455,84.224748 C 199.65365,81.790018 194.88066,80.735128 190.50955,80.943498 z "
         style="color:#000000;fill:#d44848;fill-opacity:1;fill-rule:nonzero;stroke:none;stroke-width:2.47884512;stroke-linecap:round;stroke-linejoin:round;marker:none;marker-start:none;marker-mid:none;marker-end:none;stroke-miterlimit:4;stroke-dasharray:none;stroke-dashoffset:0;stroke-opacity:1;visibility:visible;display:inline;overflow:visible" />
      <path
         id="path8767"
         d="M 146.44705,122.756 C 139.03743,123.14296 131.10449,128.53813 126.38455,137.22475 C 120.88216,147.35139 121.50638,157.52377 127.32205,163.66395 L 161.44705,146.8202 C 164.16437,136.94032 161.47488,128.41224 154.2283,124.47475 C 151.82439,123.16856 149.18108,122.61322 146.44705,122.756 z "
         style="color:#000000;fill:#71a1ee;fill-opacity:1;fill-rule:nonzero;stroke:none;stroke-width:2.47884512;stroke-linecap:round;stroke-linejoin:round;marker:none;marker-start:none;marker-mid:none;marker-end:none;stroke-miterlimit:4;stroke-dasharray:none;stroke-dashoffset:0;stroke-opacity:1;visibility:visible;display:inline;overflow:visible" />
    </g>
    <g
       id="g8793"
       transform="translate(236.9269,234.9635)">
      <path
         d="M 63.860502,134.86864 L 120.44668,134.86864 L 135.33777,141.15598 L 143.11423,161.83806 L 135.83415,175.24006 L 116.97208,184.50563 L 115.97934,189.9657 L 120.28121,193.93666 L 137.32324,204.36042 L 148.07793,223.38794 L 123.42489,224.04976 L 102.24645,188.47659 L 88.348075,188.8075 L 86.362603,224.87705 L 65.018701,224.21523 L 63.695039,217.76242 L 63.860502,134.86864 z M 119.62719,151.1002 L 116.63952,152.926 L 90.746415,150.60226 L 85.269038,161.889 L 86.430898,174.66957 L 90.08249,176.9933 L 110.33222,177.49126 L 121.61896,171.34994 L 124.44065,160.72712 L 119.62719,151.1002 z "
         style="fill:url(#linearGradient8790);fill-opacity:1;fill-rule:evenodd;stroke:none;stroke-width:1px;stroke-linecap:butt;stroke-linejoin:miter;stroke-opacity:1"
         id="path8527" />
      <path
         style="fill:#323232;fill-opacity:1"
         d="M 90.085999,198.48183 L 89.97255,213.46188 L 89.97255,220.43083 L 89.97255,227.39979 L 78.245936,227.39136 C 71.79632,227.38673 65.754409,227.13118 64.81947,226.82351 C 63.884552,226.5158 63.222461,223.87247 63.34817,220.94943 C 63.518009,216.99998 63.763565,216.60479 64.304048,219.41097 C 64.704085,221.48787 65.734084,223.18716 66.59296,223.18716 C 67.514549,223.18716 68.15454,205.9915 68.15454,181.22946 L 68.15454,139.27175 L 96.266204,139.28209 C 117.55786,139.28993 125.51098,139.88348 129.04846,141.72869 C 131.6173,143.06863 133.22341,143.36296 132.6176,142.38275 C 132.0118,141.40253 128.39956,139.1853 124.59039,137.45553 C 119.59,135.18485 118.68405,134.3003 121.33157,134.27368 C 136.3773,134.12245 146.98199,147.75827 144.53081,164.10391 C 143.11601,173.53846 134.9638,182.18658 125.87831,183.89102 L 119.9234,185.00817 L 126.55893,187.97898 C 130.20846,189.61292 132.48935,192.47718 133.26916,193.38679 C 133.26916,193.38679 135.69869,194.89035 138.73155,199.75843 C 141.7644,204.62653 145.40058,212.85914 145.40058,212.85914 L 153.62679,226.54378 L 138.01032,226.54378 L 122.39387,226.54378 L 117.82662,218.15224 L 106.6459,198.54894 C 104.32253,194.4608 101.87288,191.00354 96.609766,190.74498 C 91.448636,190.49144 90.11732,194.34651 90.085999,198.48183 z M 84.317557,205.55841 C 84.453967,195.62647 85.323015,188.66141 86.620931,187.09751 C 89.308155,183.8596 100.72275,183.82788 103.94424,187.04936 C 105.29906,188.40417 110.32331,196.77641 115.10928,205.65433 C 119.89522,214.53224 124.14146,221.46553 124.54536,221.06165 C 125.47023,220.13677 110.40983,191.68132 108.30791,190.38226 C 107.45416,189.85462 106.75563,188.58058 106.75563,187.55109 C 106.75563,182.83526 115.27294,194.44917 121.18915,207.23214 L 127.73448,221.37442 L 135.54065,221.44164 L 143.34681,221.50886 C 143.34681,221.50886 133.29567,202.08054 120.83229,195.30796 C 109.48733,189.14313 110.46551,182.78466 124.36018,178.09906 C 129.07467,176.50923 133.91108,173.43531 135.86046,170.78974 C 138.75199,166.86555 139.00696,165.1043 137.67532,158.25349 C 136.44508,151.92428 134.95165,149.49468 130.42333,146.4556 C 125.50946,143.15777 122.43341,142.60349 108.18575,142.44855 C 87.398494,142.22248 80.966545,142.22248 75.766052,142.44855 L 71.629427,142.62837 L 71.150705,182.06999 L 70.672004,221.51161 L 77.385234,221.50974 L 84.09847,221.5079 L 84.317557,205.55841 z M 88.294235,178.32785 C 84.172014,176.75866 83.312027,174.20409 83.285009,163.44776 C 83.250403,149.67033 85.542752,147.66329 101.31339,147.66329 C 115.01141,147.66329 118.57968,149.8826 118.37129,158.2726 L 118.2388,163.60722 L 116.57083,159.04501 C 114.70813,153.9501 108.77334,152.07244 97.451075,152.99587 L 90.8117,153.53737 L 90.8117,161.92891 L 90.8117,170.32046 L 101.14519,170.32046 C 106.82862,170.32046 111.12666,170.88688 110.69642,171.57918 C 110.26616,172.27149 104.48323,172.84948 97.845459,172.86361 C 89.433778,172.88154 86.539604,173.38229 88.294235,174.51622 C 92.150019,177.00801 109.6919,176.4981 115.02714,173.73913 C 117.63865,172.38869 120.24448,170.06119 120.81787,168.56696 C 122.53822,164.08378 121.9967,155.18415 119.87441,153.06185 C 117.41593,150.60337 118.65777,149.04056 121.6167,150.86928 C 124.67795,152.76125 125.99454,164.89252 123.62012,169.32918 C 120.08848,175.92811 111.91914,179.55073 100.88155,179.41237 C 95.343135,179.34295 89.678843,178.85492 88.294235,178.32785 z M 127.83663,193.14288 C 126.54297,191.04971 116.82548,187.80438 116.82548,189.46552 C 116.82548,190.20704 119.28,191.60113 122.27998,192.56349 C 125.27996,193.52587 127.96787,194.39035 128.25311,194.48458 C 128.53836,194.57882 128.35092,193.97505 127.83663,193.14288 z M 62.875253,165.42334 C 62.875253,152.9619 64.041243,141.85215 64.364162,148.08287 C 64.687089,154.31359 64.386487,194.26815 64.06356,200.49887 C 63.740641,206.72959 62.875253,177.88477 62.875253,165.42334 z "
         id="path5892"
         sodipodi:nodetypes="ccccccssscccssssscccszccccccsscssssssccccssssssccccccccssccccccccsssssssssccsssccssc" />
    </g>
    <g
       id="g1370"
       transform="translate(0,-2.337399)">
      <path
         inkscape:export-ydpi="84.550003"
         inkscape:export-xdpi="84.550003"
         inkscape:export-filename="/home/osklyar/g8876.png"
         sodipodi:nodetypes="ccccccccccccc"
         id="text8801"
         d="M 348.94494,235.09834 L 371.8166,235.09834 L 371.8166,239.68539 L 354.39543,239.68539 L 354.39543,251.61171 L 371.80452,251.61171 L 371.80452,256.19876 L 354.39543,256.19876 L 354.39543,270.79635 L 374.90222,270.79635 L 374.90222,275.3834 L 348.94494,275.3834 L 348.94494,235.09834"
         style="font-size:28px;font-style:normal;font-variant:normal;font-weight:normal;font-stretch:normal;text-align:start;line-height:125%;writing-mode:lr-tb;text-anchor:start;fill:#265d77;fill-opacity:1;stroke:none;stroke-width:1px;stroke-linecap:butt;stroke-linejoin:miter;stroke-opacity:1;font-family:DejaVu Sans" />
      <path
         inkscape:export-ydpi="84.550003"
         inkscape:export-xdpi="84.550003"
         inkscape:export-filename="/home/osklyar/g8876.png"
         d="M 380.17002,256.14478 L 380.17002,270.90429 L 388.9124,270.90429 C 391.84449,270.90429 394.01208,270.30167 395.41521,269.09644 C 396.83627,267.87325 397.54682,266.01145 397.54684,263.51105 C 397.54682,260.99268 396.83627,259.13988 395.41521,257.95262 C 394.01208,256.74741 391.84449,256.1448 388.9124,256.14478 L 380.17002,256.14478 M 380.17002,239.57746 L 380.17002,251.71964 L 388.23782,251.71964 C 390.90009,251.71966 392.87881,251.22498 394.17402,250.23559 C 395.48714,249.22827 396.14372,247.69925 396.14373,245.64856 C 396.14372,243.61588 395.48714,242.09587 394.17402,241.08849 C 392.87881,240.08117 390.90009,239.57749 388.23782,239.57746 L 380.17002,239.57746 M 374.71953,235.09834 L 388.64257,235.09834 C 392.79787,235.09838 395.9998,235.96182 398.24839,237.68867 C 400.49691,239.4156 401.62119,241.87101 401.62121,245.05492 C 401.62119,247.51938 401.04555,249.4801 399.89432,250.93714 C 398.74305,252.39424 397.05214,253.30264 394.82159,253.66238 C 397.50184,254.23804 399.57949,255.44327 401.05457,257.27805 C 402.54759,259.0949 403.2941,261.37044 403.29414,264.10467 C 403.2941,267.70236 402.07089,270.48156 399.62451,272.4423 C 397.17805,274.40304 393.6973,275.3834 389.18222,275.3834 L 374.71953,275.3834 L 374.71953,235.09834"
         style="font-size:28px;font-style:normal;font-variant:normal;font-weight:normal;font-stretch:normal;text-align:start;line-height:125%;writing-mode:lr-tb;text-anchor:start;fill:#265d77;fill-opacity:1;stroke:none;stroke-width:1px;stroke-linecap:butt;stroke-linejoin:miter;stroke-opacity:1;font-family:DejaVu Sans"
         id="path8826" />
      <path
         inkscape:export-ydpi="84.550003"
         inkscape:export-xdpi="84.550003"
         inkscape:export-filename="/home/osklyar/g8876.png"
         id="path8818"
         d="M 405.95887,242.56937 L 405.95887,275.38024 L 410.95451,275.38024 L 410.95451,258.29638 C 410.9545,255.36431 411.68178,253.03609 413.1748,251.32716 C 414.66784,249.60031 416.68255,248.73686 419.21891,248.73682 C 421.35952,248.73686 422.94251,249.4307 423.96785,250.83376 C 424.99317,252.2189 425.50968,254.39551 425.50972,257.30959 L 425.50972,275.38024 L 430.50536,275.38024 L 430.50536,258.29638 C 430.50532,255.34631 431.2326,253.03609 432.72564,251.32716 C 434.21866,249.61829 436.25903,248.73686 438.83142,248.73682 C 440.93602,248.73686 442.49334,249.4307 443.51869,250.83376 C 444.54399,252.23688 445.06052,254.41349 445.06056,257.30959 L 445.06056,275.38024 L 450.0562,275.38024 L 450.0562,257.12457 C 450.05614,253.05922 449.23639,249.94466 447.52754,247.75003 C 445.81859,245.53748 443.39785,244.41964 440.24994,244.41961 C 437.91142,244.41964 435.87101,244.96187 434.14416,246.02314 C 432.41723,247.0845 430.94476,248.72658 429.70359,250.95711 C 428.96604,248.83452 427.79677,247.20013 426.24981,246.08482 C 424.72077,244.96956 422.83201,244.41964 420.63742,244.41961 C 418.46081,244.41964 416.60799,244.89504 415.02504,245.77644 C 413.44204,246.65791 412.08777,247.99418 410.95451,249.84697 L 410.95451,242.56937 L 405.95887,242.56937 z M 463.00786,244.41961 C 461.63,244.46707 460.25585,244.67116 458.81399,244.97468 C 457.10508,245.3165 455.32678,245.81503 453.50997,246.51654 L 453.50997,251.14213 C 455.02099,250.31471 456.56027,249.70566 458.19724,249.2919 C 459.83417,248.87819 461.52763,248.61351 463.25456,248.61348 C 465.97079,248.61351 468.11398,249.26624 469.60704,250.52539 C 471.11804,251.76662 471.82728,253.5449 471.82732,255.8294 L 471.82732,256.3228 L 464.8581,256.3228 C 460.343,256.32282 456.96634,257.18628 454.68179,258.91313 C 452.41525,260.64004 451.28969,263.161 451.28969,266.56078 C 451.28969,269.47492 452.18653,271.84681 454.00337,273.59168 C 455.83817,275.31857 458.31029,276.18203 461.40432,276.18201 C 463.85074,276.18201 465.94254,275.75031 467.63345,274.88685 C 469.32434,274.00542 471.00238,272.71282 472.1357,270.878 L 473.55421,268.71939 C 473.99634,269.59904 474.55571,270.37454 475.15775,271.1247 C 477.42428,273.94888 480.39494,275.38026 484.10057,275.38024 C 486.33111,275.38024 488.23531,274.96652 489.8363,274.08508 C 491.43726,273.20365 492.75812,271.85707 493.78347,270.07623 L 493.78347,272.54321 C 493.78345,275.97901 492.99708,278.49995 491.37817,280.19086 C 489.75919,281.89977 487.29478,282.78119 484.03889,282.78119 C 482.56381,282.78119 481.14273,282.60388 479.72167,282.22612 C 478.30059,281.84836 476.86149,281.22905 475.40445,280.43756 L 475.40445,285.30985 C 476.86151,285.84951 478.35968,286.22982 479.90669,286.48167 C 481.45367,286.7515 483.09577,286.85171 484.84066,286.85171 C 489.5536,286.85171 493.04079,285.60794 495.32534,283.08956 C 497.46706,280.74546 498.58355,277.27311 498.71744,272.60489 C 501.46479,274.98975 505.06621,276.18203 509.51049,276.18201 C 511.43523,276.18201 513.31375,275.96103 515.18455,275.56527 C 517.05534,275.16952 520.00287,273.73046 521.78373,272.97493 L 521.78373,268.28767 C 520.02085,269.22307 517.1684,270.78036 515.36958,271.24805 C 513.58871,271.71575 511.72561,271.92649 509.81887,271.92647 C 506.52696,271.92649 503.96235,271.05532 502.10954,269.27446 C 500.27472,267.47563 499.24166,264.85961 499.02581,261.44179 L 521.84541,261.44179 L 521.84541,259.03648 C 521.84539,254.53941 520.64272,250.97513 518.26828,248.36678 C 515.91176,245.74051 512.7124,244.41964 508.64705,244.41961 C 504.11396,244.41964 500.53425,245.88442 497.854,248.7985 C 496.85564,249.88456 496.01098,251.12455 495.38701,252.49897 L 494.09185,249.72362 C 493.06649,247.94279 491.43726,246.65791 489.8363,245.77644 C 488.23531,244.89504 486.33111,244.41964 484.10057,244.41961 C 480.39494,244.41964 477.42428,245.85101 475.15775,248.67515 C 475.00725,248.8627 474.80487,249.03452 474.66436,249.23022 C 474.33552,248.72303 473.95894,248.2367 473.55421,247.81171 C 471.39556,245.5452 468.11911,244.41964 463.74795,244.41961 C 463.495,244.41963 463.26302,244.41082 463.00786,244.41961 z M 484.34726,248.61348 C 484.66177,248.58257 485.00127,248.61349 485.33406,248.61348 C 488.01433,248.61351 490.08811,249.59516 491.56319,251.57385 C 493.05621,253.55261 493.78345,256.30225 493.78347,259.89992 C 493.78345,263.47963 493.05621,266.30897 491.56319,268.28767 C 490.08811,270.2664 488.01431,271.24807 485.33406,271.24805 C 482.67177,271.24807 480.59796,270.2664 479.10492,268.28767 C 477.62987,266.30895 476.88462,263.47963 476.88464,259.89992 C 476.88462,256.30227 477.62987,253.55261 479.10492,251.57385 C 480.41134,249.84251 482.14565,248.82992 484.34726,248.61348 z M 508.58537,248.61348 C 508.6284,248.6131 508.66544,248.61348 508.70872,248.61348 C 511.15512,248.61351 513.09273,249.46153 514.56781,251.08046 C 516.06083,252.69945 516.87544,254.84006 516.91144,257.55629 L 499.21084,257.61796 C 499.46267,254.77582 500.39292,252.5838 502.04787,251.01878 C 503.69465,249.47828 505.8753,248.63757 508.58537,248.61348 z M 465.1048,260.2083 C 465.67141,260.1859 466.26657,260.20832 466.89336,260.2083 L 471.76565,260.2083 C 471.77277,260.90624 471.76849,261.5875 471.82732,262.24356 C 471.67814,265.04719 470.86771,267.32276 469.36034,269.08944 C 467.70539,271.03219 465.45171,271.98814 462.69949,271.98814 C 460.70277,271.98814 459.1198,271.47163 457.95054,270.44628 C 456.79927,269.40296 456.22368,268.01529 456.22366,266.2524 C 456.22366,264.03986 457.02029,262.48258 458.56729,261.56514 C 459.87256,260.7911 462.04507,260.32926 465.1048,260.2083 z "
         style="font-size:28px;font-style:normal;font-variant:normal;font-weight:normal;font-stretch:normal;text-align:start;line-height:125%;writing-mode:lr-tb;text-anchor:start;fill:#323232;fill-opacity:1;stroke:none;stroke-width:1px;stroke-linecap:butt;stroke-linejoin:miter;stroke-opacity:1;font-family:DejaVu Sans" />
      <path
         inkscape:export-ydpi="84.550003"
         inkscape:export-xdpi="84.550003"
         inkscape:export-filename="/home/osklyar/g8876.png"
         transform="matrix(1.056587,0,0,1.056587,294.7621,192.7532)"
         d="M 113.27191 38.906853 A 6.0740013 6.0740013 0 1 1  101.12391,38.906853 A 6.0740013 6.0740013 0 1 1  113.27191 38.906853 z"
         sodipodi:ry="6.0740013"
         sodipodi:rx="6.0740013"
         sodipodi:cy="38.906853"
         sodipodi:cx="107.19791"
         id="path8849"
         style="fill:#265d77;fill-opacity:1;stroke:none;stroke-width:3.54330707;stroke-miterlimit:4;stroke-dasharray:none;stroke-opacity:1"
         sodipodi:type="arc" />
      <rect
         inkscape:export-ydpi="84.550003"
         inkscape:export-xdpi="84.550003"
         inkscape:export-filename="/home/osklyar/g8876.png"
         y="242.53581"
         x="405.21805"
         height="32.807961"
         width="5.7460265"
         id="rect8851"
         style="fill:#265d77;fill-opacity:1;stroke:none;stroke-width:3.54330707;stroke-miterlimit:4;stroke-dasharray:none;stroke-opacity:1" />
    </g>
    <g
       id="g8876"
       transform="matrix(1.129606,0,0,1.129606,310.3709,209.6345)"
       inkscape:export-xdpi="84.550003"
       inkscape:export-ydpi="84.550003">
      <path
         id="path8855"
         style="fill:url(#linearGradient8880);fill-opacity:1;fill-rule:evenodd;stroke:none;stroke-width:1px;stroke-linecap:butt;stroke-linejoin:miter;stroke-opacity:1"
         d="M 206.35123,14.046851 L 232.2531,14.046851 L 239.06938,16.924831 L 242.62899,26.391887 L 239.2966,32.526546 L 230.66263,36.767786 L 230.20822,39.267089 L 232.17736,41.084765 L 239.97821,45.856157 L 244.90109,54.565852 L 233.61636,54.868795 L 223.92209,38.585461 L 217.56022,38.736933 L 216.65139,55.247481 L 206.88139,54.944538 L 206.27549,51.990816 L 206.35123,14.046851 z M 231.87799,21.476718 L 230.51041,22.312463 L 218.65805,21.24879 L 216.15082,26.415205 L 216.68265,32.265408 L 218.35414,33.329077 L 227.62329,33.557014 L 232.78971,30.745874 L 234.08131,25.883363 L 231.87799,21.476718 z " />
      <path
         sodipodi:nodetypes="ccccccssscccssssscccszccccccsscssssssccccssssssccccccccssccccccccsssssssssccsssccssc"
         id="path8857"
         d="M 218.35575,43.16528 L 218.30381,50.022278 L 218.30381,53.212259 L 218.30381,56.402245 L 212.93605,56.398386 C 209.98379,56.396267 207.21815,56.279291 206.79019,56.138457 C 206.36224,55.997605 206.05918,54.787642 206.11672,53.449644 C 206.19446,51.641815 206.30686,51.46092 206.55426,52.745426 C 206.73738,53.696111 207.20885,54.473947 207.60199,54.473947 C 208.02384,54.473947 208.3168,46.602771 208.3168,35.268145 L 208.3168,16.062339 L 221.18468,16.067072 C 230.93077,16.070661 234.57125,16.342354 236.1905,17.186984 C 237.36637,17.800331 238.10155,17.935058 237.82425,17.486375 C 237.54695,17.037687 235.89347,16.022768 234.14985,15.230979 C 231.86097,14.191594 231.44627,13.786698 232.65816,13.774513 C 239.54522,13.705289 244.39943,19.946976 243.27742,27.429062 C 242.62981,31.747652 238.8982,35.70626 234.73939,36.486453 L 232.01358,36.99782 L 235.05094,38.357684 C 236.72148,39.105607 237.76554,40.416699 238.12249,40.833066 C 238.12249,40.833066 239.23459,41.521309 240.62286,43.749633 C 242.01112,45.977967 243.67555,49.746378 243.67555,49.746378 L 247.44103,56.010413 L 240.29272,56.010413 L 233.14441,56.010413 L 231.05379,52.169253 L 225.93591,43.195999 C 224.8724,41.324686 223.7511,39.742152 221.34195,39.623799 C 218.97948,39.507743 218.37008,41.27237 218.35575,43.16528 z M 215.71529,46.404528 C 215.77773,41.858262 216.17553,38.670061 216.76964,37.954198 C 217.99969,36.472071 223.22463,36.457551 224.69924,37.932158 C 225.3194,38.552312 227.61921,42.384637 229.80995,46.448434 C 232.00068,50.512227 233.94436,53.685885 234.12924,53.501012 C 234.55259,53.077655 227.65882,40.052401 226.69668,39.457766 C 226.30588,39.216243 225.98614,38.633062 225.98614,38.161821 C 225.98614,36.003188 229.88487,41.319362 232.59296,47.170664 L 235.58904,53.64418 L 239.16225,53.674949 L 242.73546,53.705719 C 242.73546,53.705719 238.13463,44.812561 232.42961,41.712466 C 227.23655,38.890565 227.6843,35.980026 234.04448,33.83523 C 236.2025,33.107498 238.41633,31.700436 239.30864,30.489447 C 240.63221,28.693181 240.74892,27.886982 240.13938,24.751079 C 239.57624,21.853934 238.89264,20.741804 236.81984,19.350689 C 234.57055,17.841134 233.16251,17.587417 226.64076,17.516494 C 217.12556,17.413012 214.18139,17.413012 211.8009,17.516494 L 209.9074,17.598805 L 209.68827,35.652891 L 209.46914,53.706977 L 212.54207,53.706121 L 215.615,53.705279 L 215.71529,46.404528 z M 217.53558,33.939957 C 215.64867,33.221673 215.25501,32.052339 215.24265,27.128715 C 215.22681,20.822206 216.27611,19.9035 223.49499,19.9035 C 229.76515,19.9035 231.3985,20.919371 231.30311,24.759826 L 231.24246,27.201706 L 230.47896,25.113391 C 229.62633,22.781237 226.90973,21.921753 221.72705,22.344446 L 218.68793,22.592313 L 218.68793,26.433473 L 218.68793,30.274638 L 223.418,30.274638 C 226.01955,30.274638 227.98694,30.533912 227.79,30.850807 C 227.59305,31.167706 224.94596,31.432277 221.90758,31.438745 C 218.0572,31.446952 216.73241,31.676166 217.53558,32.195214 C 219.30053,33.335811 227.33019,33.102403 229.77235,31.839507 C 230.96775,31.221354 232.16055,30.155959 232.42301,29.471987 C 233.21049,27.419848 232.96261,23.346113 231.99115,22.374647 C 230.8658,21.249298 231.43424,20.533934 232.78867,21.371016 C 234.18993,22.23705 234.79259,27.790042 233.70572,29.820888 C 232.08914,32.841495 228.34969,34.49972 223.29732,34.436387 C 220.76216,34.404611 218.16937,34.181219 217.53558,33.939957 z M 235.63579,40.721418 C 235.04363,39.763286 230.59553,38.277763 230.59553,39.038136 C 230.59553,39.377561 231.71907,40.015694 233.09228,40.456207 C 234.4655,40.896729 235.69587,41.292438 235.82644,41.335571 C 235.95701,41.378708 235.87121,41.102337 235.63579,40.721418 z M 205.90024,28.03302 C 205.90024,22.328896 206.43397,17.243497 206.58178,20.095559 C 206.7296,22.947621 206.592,41.236502 206.44418,44.088564 C 206.29637,46.940626 205.90024,33.73714 205.90024,28.03302 z "
         style="fill:#323232;fill-opacity:1" />
    </g>
    <path
       sodipodi:type="arc"
       style="fill:#323232;fill-opacity:1;stroke:none;stroke-width:3.54330707;stroke-miterlimit:4;stroke-dasharray:none;stroke-opacity:1"
       id="path1377"
       sodipodi:cx="532.86066"
       sodipodi:cy="248.91522"
       sodipodi:rx="2.9411554"
       sodipodi:ry="2.9411554"
       d="M 535.80181 248.91522 A 2.9411554 2.9411554 0 1 1  529.9195,248.91522 A 2.9411554 2.9411554 0 1 1  535.80181 248.91522 z" />
    <path
       d="M 535.80181 248.91522 A 2.9411554 2.9411554 0 1 1  529.9195,248.91522 A 2.9411554 2.9411554 0 1 1  535.80181 248.91522 z"
       sodipodi:ry="2.9411554"
       sodipodi:rx="2.9411554"
       sodipodi:cy="248.91522"
       sodipodi:cx="532.86066"
       id="path2252"
       style="fill:#323232;fill-opacity:1;stroke:none;stroke-width:3.54330707;stroke-miterlimit:4;stroke-dasharray:none;stroke-opacity:1"
       sodipodi:type="arc"
       transform="translate(0,15.08941)" />
  </g>
</svg>
